<svg width="32" height="32" viewBox="0 0 32 32" fill="none" xmlns="http://www.w3.org/2000/svg">
<path d="M28.9875 12.5197L29.4349 8.24258L25.5059 6.49474L23.7587 2.56578L19.4816 3.0125L16 0.489624L12.5191 3.0125L8.24258 2.56578L6.49474 6.4941L2.56578 8.24258L3.0125 12.5191L0.489624 16L3.0125 19.4803L2.56514 23.7575L6.4941 25.5053L8.2413 29.4343L12.5184 28.9875L16 31.5104L19.481 28.9875L23.7575 29.4343L25.5053 25.5059L29.4343 23.7575L28.9875 19.481L31.5104 16L28.9875 12.5197ZM28.0647 22.9664L24.5357 24.5363L22.9658 28.0647L19.1264 27.664L16 29.9296L12.8736 27.664L9.03362 28.0647L7.4637 24.5357L3.93538 22.9664L4.33602 19.1271L2.07042 16L4.33666 12.8736L3.93602 9.03362L7.46498 7.4637L9.0349 3.93538L12.8743 4.33602L16 2.07042L19.1264 4.33602L22.9664 3.93538L24.5363 7.46434L28.0647 9.03362L27.664 12.873L29.9296 16L27.6634 19.1264L28.0647 22.9664V22.9664Z" fill="#FF4E1B"/>
<path d="M10.546 13.811C10.546 13.1783 10.728 12.6843 11.092 12.329C11.4647 11.965 11.9413 11.783 12.522 11.783C13.1027 11.783 13.575 11.965 13.939 12.329C14.3117 12.6843 14.498 13.1783 14.498 13.811C14.498 14.4437 14.3117 14.942 13.939 15.306C13.575 15.67 13.1027 15.852 12.522 15.852C11.9413 15.852 11.4647 15.67 11.092 15.306C10.728 14.942 10.546 14.4437 10.546 13.811ZM18.476 11.952L13.289 21H11.833L17.02 11.952H18.476ZM12.522 12.68C11.976 12.68 11.703 13.057 11.703 13.811C11.703 14.5737 11.976 14.955 12.522 14.955C12.782 14.955 12.9813 14.864 13.12 14.682C13.2673 14.4913 13.341 14.201 13.341 13.811C13.341 13.057 13.068 12.68 12.522 12.68ZM15.837 19.128C15.837 18.4953 16.019 18.0013 16.383 17.646C16.7557 17.282 17.2323 17.1 17.813 17.1C18.385 17.1 18.853 17.282 19.217 17.646C19.5897 18.0013 19.776 18.4953 19.776 19.128C19.776 19.7607 19.5897 20.259 19.217 20.623C18.853 20.987 18.385 21.169 17.813 21.169C17.2323 21.169 16.7557 20.987 16.383 20.623C16.019 20.259 15.837 19.7607 15.837 19.128ZM17.8 17.997C17.254 17.997 16.981 18.374 16.981 19.128C16.981 19.882 17.254 20.259 17.8 20.259C18.346 20.259 18.619 19.882 18.619 19.128C18.619 18.374 18.346 17.997 17.8 17.997Z" fill="#FF4E1B"/>
</svg>
