<svg width="39" height="39" viewBox="0 0 39 39" fill="none" xmlns="http://www.w3.org/2000/svg">
<path d="M34.2752 30.6362L3.74285 26.8132C2.85575 26.7022 2.22673 25.893 2.33778 25.0058L4.49573 7.77027C4.60679 6.88317 5.41597 6.25407 6.30314 6.36513L36.8355 10.188C37.7226 10.2991 38.3516 11.1083 38.2406 11.9954L36.0825 29.231C35.9715 30.1181 35.1623 30.7472 34.2752 30.6362Z" fill="#3F5EAB"/>
<path d="M33.1469 32.6476H2.37619C1.48216 32.6476 0.757385 31.9227 0.757385 31.0288V13.6585C0.757385 12.7645 1.48216 12.0398 2.37619 12.0398H33.1469C34.0409 12.0398 34.7657 12.7646 34.7657 13.6585V31.0288C34.7657 31.9227 34.0409 32.6476 33.1469 32.6476Z" fill="url(#paint0_linear_2_63)"/>
<path d="M13.1322 27.4601C14.1125 27.4601 14.1141 25.9366 13.1322 25.9366H4.00422C3.02397 25.9366 3.02237 27.4601 4.00422 27.4601H13.1322V27.4601ZM15.7729 27.4601H17.6461C18.6263 27.4601 18.628 25.9366 17.6461 25.9366H15.7729C14.7926 25.9366 14.791 27.4601 15.7729 27.4601Z" fill="white"/>
<path d="M24.7777 29.8144C26.3491 29.8144 27.623 28.5405 27.623 26.9691C27.623 25.3977 26.3491 24.1238 24.7777 24.1238C23.2063 24.1238 21.9324 25.3977 21.9324 26.9691C21.9324 28.5405 23.2063 29.8144 24.7777 29.8144Z" fill="url(#paint1_linear_2_63)"/>
<path d="M29.3733 29.8144C30.9447 29.8144 32.2186 28.5405 32.2186 26.9691C32.2186 25.3977 30.9447 24.1238 29.3733 24.1238C27.8018 24.1238 26.528 25.3977 26.528 26.9691C26.528 28.5405 27.8018 29.8144 29.3733 29.8144Z" fill="#3F5EAB"/>
<path d="M0.75736 18.9827C1.88805 18.9827 34.5994 19.03 34.7085 18.9827C34.7219 18.9768 34.7501 18.9827 34.7657 18.9827C34.7797 18.9827 34.7801 17.0784 34.7657 17.0784C33.6351 17.0784 0.923719 17.0311 0.814641 17.0784C0.801082 17.0843 0.772975 17.0784 0.75736 17.0784C0.74342 17.0784 0.742887 18.9827 0.75736 18.9827V18.9827Z" fill="white"/>
<defs>
<linearGradient id="paint0_linear_2_63" x1="4.58167" y1="35.5235" x2="30.9415" y2="9.16377" gradientUnits="userSpaceOnUse">
<stop stop-color="#00FFFF"/>
<stop offset="1" stop-color="#FF7BAC"/>
</linearGradient>
<linearGradient id="paint1_linear_2_63" x1="21.9324" y1="26.9691" x2="27.623" y2="26.9691" gradientUnits="userSpaceOnUse">
<stop stop-color="#B3B3B3"/>
<stop offset="0.016" stop-color="#B7B7B7"/>
<stop offset="0.152" stop-color="#D1D1D1"/>
<stop offset="0.302" stop-color="#E5E5E5"/>
<stop offset="0.47" stop-color="#F4F4F4"/>
<stop offset="0.672" stop-color="#FCFCFC"/>
<stop offset="1" stop-color="white"/>
</linearGradient>
</defs>
</svg>
