<svg width="32" height="32" viewBox="0 0 32 32" fill="none" xmlns="http://www.w3.org/2000/svg">
<g clip-path="url(#clip0_1_13)">
<path d="M16 23C13.924 23 11.914 22.421 10.185 21.325C8.59434 20.345 7.28211 18.9728 6.37418 17.3399C5.46625 15.7071 4.99307 13.8683 5.00001 12C5.00001 5.935 9.93501 1 16 1C22.065 1 27 5.935 27 12C27.0065 13.8698 26.5323 15.7099 25.6229 17.3437C24.7136 18.9775 23.3996 20.3502 21.807 21.33C20.069 22.4264 18.0549 23.0056 16 23ZM16 3C11.038 3 7.00001 7.038 7.00001 12C6.99475 13.5293 7.38257 15.0342 8.12626 16.3705C8.86996 17.7068 9.94458 18.8295 11.247 19.631C14.081 21.426 17.928 21.421 20.746 19.636C22.0501 18.8345 23.1262 17.7113 23.8712 16.3741C24.6161 15.0369 25.0048 13.5307 25 12C25 7.038 20.962 3 16 3Z" fill="white"/>
<path d="M16 31C15.252 31 14.572 30.569 14.226 29.877L8.25702 17.736L11.255 19.635C14.072 21.42 17.928 21.42 20.745 19.635L23.743 17.736L17.777 29.871C17.428 30.569 16.748 31 16 31ZM16 16C13.794 16 12 14.206 12 12C12 9.794 13.794 8 16 8C18.206 8 20 9.794 20 12C20 14.206 18.206 16 16 16ZM16 10C14.897 10 14 10.897 14 12C14 13.103 14.897 14 16 14C17.103 14 18 13.103 18 12C18 10.897 17.103 10 16 10Z" fill="white"/>
<path d="M16 10C15.7348 10 15.4804 9.89464 15.2929 9.70711C15.1054 9.51957 15 9.26522 15 9V7C15 6.73478 15.1054 6.48043 15.2929 6.29289C15.4804 6.10536 15.7348 6 16 6C16.2652 6 16.5196 6.10536 16.7071 6.29289C16.8946 6.48043 17 6.73478 17 7V9C17 9.26522 16.8946 9.51957 16.7071 9.70711C16.5196 9.89464 16.2652 10 16 10ZM16 18C15.7348 18 15.4804 17.8946 15.2929 17.7071C15.1054 17.5196 15 17.2652 15 17V15C15 14.7348 15.1054 14.4804 15.2929 14.2929C15.4804 14.1054 15.7348 14 16 14C16.2652 14 16.5196 14.1054 16.7071 14.2929C16.8946 14.4804 17 14.7348 17 15V17C17 17.2652 16.8946 17.5196 16.7071 17.7071C16.5196 17.8946 16.2652 18 16 18ZM21 13H19C18.7348 13 18.4804 12.8946 18.2929 12.7071C18.1054 12.5196 18 12.2652 18 12C18 11.7348 18.1054 11.4804 18.2929 11.2929C18.4804 11.1054 18.7348 11 19 11H21C21.2652 11 21.5196 11.1054 21.7071 11.2929C21.8946 11.4804 22 11.7348 22 12C22 12.2652 21.8946 12.5196 21.7071 12.7071C21.5196 12.8946 21.2652 13 21 13ZM13 13H11C10.7348 13 10.4804 12.8946 10.2929 12.7071C10.1054 12.5196 10 12.2652 10 12C10 11.7348 10.1054 11.4804 10.2929 11.2929C10.4804 11.1054 10.7348 11 11 11H13C13.2652 11 13.5196 11.1054 13.7071 11.2929C13.8946 11.4804 14 11.7348 14 12C14 12.2652 13.8946 12.5196 13.7071 12.7071C13.5196 12.8946 13.2652 13 13 13Z" fill="white"/>
</g>
<defs>
<clipPath id="clip0_1_13">
<rect width="32" height="32" fill="white"/>
</clipPath>
</defs>
</svg>
