<svg width="28" height="28" viewBox="0 0 28 28" fill="none" xmlns="http://www.w3.org/2000/svg">
<path d="M21 0H7C3.13401 0 0 3.13401 0 7V21C0 24.866 3.13401 28 7 28H21C24.866 28 28 24.866 28 21V7C28 3.13401 24.866 0 21 0Z" fill="#FF673B"/>
<path d="M21.9211 9.03808L18.363 6.26135C18.2389 6.16176 18.0961 6.08813 17.943 6.04483C17.7899 6.00152 17.6297 5.98943 17.4718 6.00926C17.3139 6.02909 17.1617 6.08045 17.024 6.16028C16.8864 6.2401 16.7662 6.34678 16.6706 6.47396L8.47009 16.892C8.35659 17.0285 8.28301 17.1937 8.25748 17.3694L7.0392 22.5316C6.97902 22.7542 6.98831 22.9899 7.06583 23.2071C7.14335 23.4242 7.2854 23.6125 7.47293 23.7467C7.65713 23.8855 7.8759 23.9709 8.10537 23.9938C8.33483 24.0167 8.56617 23.9761 8.77413 23.8764L13.5037 21.4909C13.6664 21.3996 13.8129 21.2821 13.9375 21.1433L22.138 10.773C22.3296 10.5106 22.4138 10.185 22.3735 9.86255C22.3332 9.54014 22.1714 9.24526 21.9211 9.03808V9.03808ZM12.3758 19.6688L9.64585 21.0571L10.34 18.0635L15.1525 11.9445L17.1936 13.5497L12.3758 19.6688ZM18.4938 11.8584L16.4495 10.2542L17.7996 8.56076L19.8386 10.166L18.4938 11.8584Z" fill="white"/>
</svg>
