<svg width="28" height="28" viewBox="0 0 28 28" fill="none" xmlns="http://www.w3.org/2000/svg">
<path d="M21 0H7C3.13401 0 0 3.13401 0 7V21C0 24.866 3.13401 28 7 28H21C24.866 28 28 24.866 28 21V7C28 3.13401 24.866 0 21 0Z" fill="#FF673B"/>
<path d="M21.4981 12.1453H15.4653V10.334C15.4653 9.50717 14.7931 8.83217 13.9634 8.83217L6.50188 8.82935C5.675 8.82654 5 9.50154 5 10.3284V15.1069C5 15.9337 5.67219 16.6087 6.50188 16.6087H6.78031V17.4525C6.78031 17.6015 6.86188 17.7365 6.99406 17.8069C7.05873 17.8415 7.13161 17.858 7.20491 17.8546C7.27821 17.8511 7.3492 17.8278 7.41031 17.7872L9.17375 16.6087H12.5375V18.4228C12.5375 19.2497 13.2097 19.9219 14.0366 19.9219H18.8291L20.5925 21.1031C20.6536 21.1437 20.7246 21.167 20.7979 21.1705C20.8712 21.174 20.9441 21.1575 21.0087 21.1228C21.1409 21.0525 21.2225 20.9175 21.2225 20.7684V19.9247H21.5009C22.3306 19.9247 23.0028 19.2525 23.0056 18.4256V13.65C23 12.8203 22.325 12.1453 21.4981 12.1453ZM12.9509 15.8015H9.04719C8.96844 15.8015 8.88969 15.824 8.82219 15.869L7.58469 16.6959V16.2037C7.58469 15.9815 7.40469 15.8015 7.1825 15.8015H6.50188C6.11938 15.8015 5.80719 15.4894 5.80719 15.1069V10.3284C5.80719 9.94592 6.11938 9.63373 6.50188 9.63373L13.9634 9.63654C14.3459 9.63654 14.6581 9.94873 14.6581 10.3312V15.1069C14.6581 15.4894 14.3459 15.8015 13.9634 15.8015H12.9509V15.8015ZM22.1928 18.4256C22.1928 18.8081 21.8806 19.1203 21.4953 19.1203H20.8147C20.5925 19.1203 20.4125 19.3003 20.4125 19.5225V20.0147L19.175 19.185C19.1075 19.14 19.0316 19.1175 18.95 19.1175H14.0337C13.6512 19.1175 13.3391 18.8053 13.3391 18.4228V16.6087H13.9606C14.7875 16.6087 15.4625 15.9365 15.4625 15.1069V12.9469H21.4953C21.6803 12.9469 21.8577 13.0203 21.9885 13.1511C22.1193 13.282 22.1928 13.4594 22.1928 13.6444V18.4256V18.4256Z" fill="white"/>
<path d="M11.57 13.8638C11.5522 13.8481 11.531 13.8366 11.5082 13.83C11.4829 13.8216 11.4463 13.8075 11.4013 13.7878C11.3563 13.7681 11.3029 13.74 11.2354 13.7006C11.1707 13.6613 11.0947 13.605 11.0104 13.5319C11.0666 13.4756 11.1172 13.4109 11.1594 13.3378C11.2044 13.2647 11.241 13.1831 11.2691 13.0931C11.3 13.0031 11.3225 12.9075 11.3366 12.8034C11.3535 12.6994 11.3591 12.5869 11.3591 12.4688C11.3591 12.2381 11.331 12.0412 11.2775 11.8725C11.2241 11.7037 11.1454 11.5659 11.0385 11.4562C10.9344 11.3466 10.805 11.265 10.6532 11.2116C10.5013 11.1581 10.3241 11.1328 10.1272 11.1328C9.91629 11.1328 9.73066 11.1638 9.57316 11.2284C9.41285 11.2931 9.28066 11.3859 9.17098 11.5041C9.0641 11.625 8.98254 11.7684 8.92629 11.94C8.87285 12.1116 8.84473 12.3056 8.84473 12.5194C8.84473 12.7556 8.87004 12.9609 8.92066 13.1325C8.97129 13.3041 9.05004 13.4447 9.15129 13.5572C9.25254 13.6669 9.38191 13.7484 9.5366 13.8019C9.69129 13.8553 9.87129 13.8806 10.0766 13.8806C10.1863 13.8806 10.2847 13.8694 10.3747 13.8497C10.4647 13.8272 10.5407 13.8047 10.6025 13.7738C10.6785 13.8609 10.76 13.9369 10.8472 14.0016C10.9344 14.0691 11.0216 14.1253 11.106 14.1703C11.1904 14.2153 11.2691 14.2519 11.3422 14.2772C11.4154 14.3025 11.4744 14.3138 11.5194 14.3138C11.5307 14.3138 11.5419 14.3109 11.5504 14.3053C11.5588 14.2997 11.57 14.2913 11.5757 14.2744C11.5854 14.2519 11.592 14.2283 11.5954 14.2041C11.601 14.1731 11.6038 14.1338 11.6038 14.0859C11.6038 14.0241 11.601 13.9763 11.5925 13.9425C11.5841 13.9088 11.5869 13.8778 11.57 13.8638V13.8638ZM10.7629 12.8597C10.7404 12.9722 10.701 13.0734 10.6475 13.1578C10.5941 13.2422 10.521 13.3097 10.431 13.3575C10.341 13.4081 10.2313 13.4306 10.0991 13.4306C9.96691 13.4306 9.85723 13.4081 9.77004 13.3659C9.68285 13.3238 9.61254 13.2591 9.56191 13.1775C9.5061 13.0863 9.46883 12.985 9.45223 12.8794C9.42848 12.7495 9.41718 12.6176 9.41848 12.4856C9.41848 12.3619 9.42973 12.2466 9.45223 12.1341C9.47473 12.0216 9.5141 11.9259 9.56754 11.8416C9.62098 11.7572 9.6941 11.6925 9.7841 11.6419C9.8741 11.5912 9.98379 11.5687 10.116 11.5687C10.2482 11.5687 10.3579 11.5913 10.445 11.6363C10.5322 11.6813 10.6025 11.7431 10.656 11.8247C10.7094 11.9062 10.746 12.0047 10.7685 12.1172C10.791 12.2297 10.8022 12.3563 10.8022 12.4941C10.7994 12.6234 10.7854 12.7444 10.7629 12.8597ZM18.1569 14.7131C18.1506 14.6899 18.1401 14.6679 18.126 14.6484C18.1147 14.6316 18.0922 14.6203 18.0641 14.6119C18.0256 14.6016 17.9858 14.5969 17.946 14.5978C17.8954 14.595 17.8279 14.595 17.7407 14.595C17.6675 14.595 17.6085 14.595 17.5635 14.5978C17.5185 14.6006 17.4847 14.6063 17.4594 14.6119C17.4341 14.6203 17.4144 14.6316 17.4032 14.6456C17.3919 14.6597 17.3807 14.6794 17.3722 14.7047L16.506 17.1966C16.4891 17.2472 16.4779 17.2866 16.4722 17.3175C16.4666 17.3484 16.4722 17.3709 16.4863 17.3878C16.5004 17.4047 16.5257 17.4159 16.565 17.4188C16.6016 17.4244 16.655 17.4244 16.7225 17.4244C16.7844 17.4244 16.835 17.4216 16.8744 17.4188C16.9138 17.4159 16.9419 17.4103 16.9644 17.4019C16.9841 17.3934 17.001 17.3822 17.0094 17.3681C17.0191 17.3523 17.0267 17.3353 17.0319 17.3175L17.2091 16.7691H18.2638L18.4522 17.3344C18.4579 17.3541 18.4663 17.3681 18.4747 17.3794C18.4832 17.3906 18.4972 17.3991 18.5197 17.4075C18.5422 17.4131 18.5732 17.4188 18.6154 17.4216C18.6575 17.4244 18.7138 17.4244 18.7869 17.4244C18.8572 17.4244 18.9135 17.4216 18.9529 17.4188C18.9922 17.4159 19.0204 17.4047 19.0372 17.3906C19.0541 17.3766 19.0597 17.3541 19.0541 17.3231C19.0466 17.2809 19.0353 17.2395 19.0204 17.1994L18.1569 14.7131V14.7131ZM17.3385 16.3359L17.735 15.1434H17.7379L18.1344 16.3359H17.3385V16.3359Z" fill="white"/>
</svg>
