<svg width="35" height="35" viewBox="0 0 35 35" fill="none" xmlns="http://www.w3.org/2000/svg">
<g clip-path="url(#clip0_2_41)">
<path d="M17.4906 35C27.1504 35 34.9811 27.165 34.9811 17.5C34.9811 7.83502 27.1504 0 17.4906 0C7.8308 0 0 7.83502 0 17.5C0 27.165 7.8308 35 17.4906 35Z" fill="white"/>
<path d="M17.4905 35C14.2398 35.0052 11.0524 34.0998 8.28943 32.3861L20.005 0.179504C24.383 0.811819 28.359 3.08036 31.1323 6.52831C33.9056 9.97626 35.2701 14.3475 34.9512 18.7618C34.6323 23.176 32.6535 27.3055 29.4134 30.3185C26.1734 33.3315 21.9126 35.0043 17.4892 35H17.4905Z" fill="#6E7BF2"/>
<path d="M11.5577 17.4232C11.5626 17.1287 11.5324 16.8347 11.4678 16.5474H7.44238V18.139H9.80571C9.76126 18.4181 9.66079 18.6853 9.51035 18.9245C9.35992 19.1637 9.16264 19.3699 8.9304 19.5308L8.92199 19.5833L10.1942 20.5699L10.2824 20.5783C10.7035 20.1709 11.0345 19.6796 11.2542 19.1363C11.4739 18.593 11.5774 18.0096 11.558 17.4239" fill="#4285F4"/>
<path d="M7.44243 21.6175C8.48681 21.6469 9.5028 21.275 10.2818 20.5784L8.92977 19.5291C8.4913 19.8234 7.97188 19.9734 7.44411 19.9579C6.90188 19.9543 6.37453 19.7802 5.93668 19.4601C5.49883 19.1401 5.17267 18.6904 5.00437 18.1747L4.95353 18.1797L3.63048 19.2037L3.61365 19.2512C3.96869 19.9629 4.51512 20.5615 5.19151 20.9795C5.86789 21.3975 6.64741 21.6185 7.44243 21.6175" fill="#34A853"/>
<path d="M5.00275 18.177C4.90894 17.9037 4.86082 17.6168 4.86035 17.3279C4.86244 17.0393 4.90935 16.7529 4.99938 16.4787L4.9977 16.4228L3.65748 15.382L3.61338 15.4022C3.31265 15.9994 3.15601 16.6589 3.15601 17.3277C3.15601 17.9965 3.31265 18.656 3.61338 19.2532L5.00275 18.1754" fill="#FBBC05"/>
<path d="M7.44243 14.6979C8.05689 14.6877 8.65117 14.9173 9.09945 15.3379L10.3097 14.1566C9.53332 13.4283 8.50555 13.0287 7.44142 13.0413C6.64652 13.0409 5.8672 13.2619 5.19069 13.6795C4.51419 14.0971 3.9672 14.6949 3.61096 15.4059L4.99663 16.4838C5.16663 15.9678 5.49415 15.5181 5.93305 15.1982C6.37195 14.8783 6.9001 14.7043 7.4431 14.7006" fill="#EB4335"/>
<path d="M18.3056 17.8052V20.9223H17.3094V13.2215H19.9505C20.2655 13.2147 20.5788 13.27 20.8724 13.3843C21.166 13.4986 21.4342 13.6697 21.6617 13.8878C21.8757 14.0851 22.0487 14.3227 22.1709 14.5869C22.2931 14.8511 22.362 15.1369 22.3738 15.4278C22.3856 15.7187 22.34 16.009 22.2396 16.2823C22.1392 16.5556 21.9859 16.8064 21.7886 17.0204C21.748 17.0653 21.7057 17.1076 21.6617 17.1473C21.4336 17.3638 21.165 17.5331 20.8713 17.6457C20.5777 17.7582 20.2648 17.8117 19.9505 17.8032L18.3056 17.8048V17.8052ZM18.3056 14.1694V16.8577H19.9744C20.2368 16.8638 20.4953 16.7926 20.7176 16.653C20.9399 16.5134 21.1164 16.3115 21.225 16.0724C21.3336 15.8333 21.3697 15.5676 21.3286 15.3082C21.2876 15.0488 21.1713 14.8071 20.9941 14.6133L20.984 14.6032C20.976 14.5942 20.9674 14.5857 20.9584 14.5776C20.8324 14.4439 20.6796 14.3384 20.51 14.268C20.3403 14.1976 20.1577 14.1638 19.9741 14.169L18.3056 14.1694ZM24.6684 15.483C25.3032 15.4472 25.9274 15.6572 26.4116 16.0695C26.6277 16.2754 26.7967 16.5256 26.9071 16.803C27.0175 17.0804 27.0667 17.3783 27.0512 17.6765V20.9243H26.0992V20.192H26.0567C25.8836 20.472 25.6409 20.7023 25.3524 20.8607C25.0638 21.019 24.7392 21.0998 24.4102 21.0954C23.8742 21.1129 23.3511 20.9284 22.9447 20.5784C22.7565 20.4209 22.6059 20.2234 22.5039 20.0002C22.4019 19.7769 22.3511 19.5337 22.3552 19.2883C22.3468 19.0375 22.399 18.7884 22.5072 18.5621C22.6154 18.3358 22.7766 18.1389 22.977 17.9881C23.4611 17.6448 24.0466 17.4747 24.6391 17.5051C25.1454 17.486 25.6482 17.5968 26.0995 17.8271V17.6001C26.1007 17.4326 26.0643 17.2669 25.9931 17.1154C25.9218 16.9638 25.8175 16.8301 25.6878 16.7243C25.4239 16.4884 25.0811 16.3602 24.7273 16.3649C24.4661 16.3589 24.2076 16.4199 23.9766 16.5421C23.7456 16.6643 23.5497 16.8437 23.4076 17.0631L22.5323 16.5141C22.7709 16.1736 23.0927 15.8999 23.4669 15.7192C23.8412 15.5385 24.2555 15.4567 24.6704 15.4817L24.6684 15.483ZM23.379 19.3105C23.3784 19.4365 23.4079 19.5609 23.4651 19.6732C23.5222 19.7855 23.6053 19.8826 23.7076 19.9562C23.9284 20.1286 24.2019 20.2196 24.4819 20.2139C24.9016 20.2139 25.3043 20.0475 25.6016 19.7511C25.7568 19.6158 25.8813 19.4488 25.9666 19.2614C26.0519 19.074 26.0961 18.8704 26.0962 18.6644C25.7174 18.3974 25.2592 18.2668 24.7966 18.2939C24.4377 18.2807 24.0839 18.3823 23.7867 18.5839C23.6642 18.6618 23.563 18.7689 23.4921 18.8955C23.4211 19.0221 23.3826 19.1644 23.38 19.3095L23.379 19.3105ZM32.5175 15.6558L29.1934 23.2448H28.1649L29.3984 20.5885L27.2101 15.6525H28.2928L29.8751 19.4375H29.897L31.4335 15.6525L32.5175 15.6558Z" fill="white"/>
</g>
<defs>
<clipPath id="clip0_2_41">
<rect width="35" height="35" fill="white"/>
</clipPath>
</defs>
</svg>
