<svg width="28" height="28" viewBox="0 0 28 28" fill="none" xmlns="http://www.w3.org/2000/svg">
<path d="M21 0H7C3.13401 0 0 3.13401 0 7V21C0 24.866 3.13401 28 7 28H21C24.866 28 28 24.866 28 21V7C28 3.13401 24.866 0 21 0Z" fill="#FF673B"/>
<path d="M11.1251 13.9063V13.2419C11.1251 12.7146 11.3786 12.1963 11.8406 11.9415C12.3708 11.6494 12.7033 11.042 12.5857 10.3717C12.4812 9.77435 11.9908 9.28451 11.3941 9.18001C10.5604 9.03335 9.82479 9.58317 9.67041 10.3444" stroke="white" stroke-miterlimit="10" stroke-linecap="round" stroke-linejoin="round"/>
<path d="M11.125 16.2812C11.4529 16.2812 11.7188 16.0154 11.7188 15.6875C11.7188 15.3596 11.4529 15.0938 11.125 15.0938C10.7971 15.0938 10.5312 15.3596 10.5312 15.6875C10.5312 16.0154 10.7971 16.2812 11.125 16.2812Z" fill="white"/>
<path d="M11.125 17.4688C14.0763 17.4688 16.4688 15.0763 16.4688 12.125C16.4688 9.17373 14.0763 6.78125 11.125 6.78125C8.17373 6.78125 5.78125 9.17373 5.78125 12.125C5.78125 15.0763 8.17373 17.4688 11.125 17.4688Z" stroke="white" stroke-miterlimit="10" stroke-linecap="round" stroke-linejoin="round"/>
<path d="M20.8873 20.2854L17.4745 16.8726L15.8755 18.4769L19.2854 21.8868C19.7277 22.3291 20.445 22.3291 20.8873 21.8868C21.3297 21.445 21.3297 20.7278 20.8873 20.2854Z" stroke="white" stroke-miterlimit="10" stroke-linecap="round" stroke-linejoin="round"/>
<path d="M16.6266 17.6266L14.9036 15.9036" stroke="white" stroke-miterlimit="10" stroke-linecap="round" stroke-linejoin="round"/>
</svg>
