<svg width="28" height="28" viewBox="0 0 28 28" fill="none" xmlns="http://www.w3.org/2000/svg">
<path d="M21 0H7C3.13401 0 0 3.13401 0 7V21C0 24.866 3.13401 28 7 28H21C24.866 28 28 24.866 28 21V7C28 3.13401 24.866 0 21 0Z" fill="#FF673B"/>
<path d="M7.81494 22.9989C7.778 22.999 7.74142 22.9917 7.70729 22.9776C7.67315 22.9634 7.64214 22.9427 7.61602 22.9166C7.5899 22.8905 7.56918 22.8595 7.55506 22.8253C7.54093 22.7912 7.53367 22.7546 7.53369 22.7177V19.9066C7.53369 19.832 7.56332 19.7604 7.61607 19.7077C7.66881 19.6549 7.74035 19.6253 7.81494 19.6253C7.88953 19.6253 7.96107 19.6549 8.01382 19.7077C8.06656 19.7604 8.09619 19.832 8.09619 19.9066V22.7177C8.09621 22.7546 8.08895 22.7912 8.07482 22.8253C8.0607 22.8595 8.03998 22.8905 8.01386 22.9166C7.98774 22.9427 7.95673 22.9634 7.9226 22.9776C7.88846 22.9917 7.85188 22.999 7.81494 22.9989ZM13.4399 17.3748C12.2469 17.3734 11.1031 16.8988 10.2595 16.0552C9.41585 15.2116 8.94131 14.0678 8.93994 12.8748C8.93994 12.8002 8.96957 12.7286 9.02232 12.6759C9.07506 12.6231 9.1466 12.5935 9.22119 12.5935C9.29578 12.5935 9.36732 12.6231 9.42007 12.6759C9.47281 12.7286 9.50244 12.8002 9.50244 12.8748C9.50244 13.919 9.91728 14.9206 10.6557 15.659C11.3941 16.3974 12.3957 16.8123 13.4399 16.8123C14.4842 16.8123 15.4857 16.3974 16.2242 15.659C16.9626 14.9206 17.3774 13.919 17.3774 12.8748C17.3774 12.8002 17.4071 12.7286 17.4598 12.6759C17.5126 12.6231 17.5841 12.5935 17.6587 12.5935C17.7333 12.5935 17.8048 12.6231 17.8576 12.6759C17.9103 12.7286 17.9399 12.8002 17.9399 12.8748C17.9386 14.0678 17.464 15.2116 16.6204 16.0552C15.7768 16.8988 14.633 17.3734 13.4399 17.3748V17.3748Z" fill="white"/>
<path d="M9.22119 13.1559C9.18425 13.1559 9.14767 13.1487 9.11354 13.1345C9.0794 13.1204 9.04839 13.0997 9.02227 13.0736C8.99615 13.0474 8.97543 13.0164 8.96131 12.9823C8.94718 12.9482 8.93992 12.9116 8.93994 12.8746V11.4692C8.93994 11.3946 8.96957 11.3231 9.02232 11.2704C9.07506 11.2176 9.1466 11.188 9.22119 11.188C9.29578 11.188 9.36732 11.2176 9.42007 11.2704C9.47281 11.3231 9.50244 11.3946 9.50244 11.4692V12.8746C9.50246 12.9116 9.4952 12.9482 9.48108 12.9823C9.46695 13.0164 9.44623 13.0474 9.42011 13.0736C9.39399 13.0997 9.36298 13.1204 9.32885 13.1345C9.29471 13.1487 9.25813 13.1559 9.22119 13.1559V13.1559ZM17.6587 13.1559C17.6218 13.1559 17.5852 13.1487 17.551 13.1345C17.5169 13.1204 17.4859 13.0997 17.4598 13.0736C17.4336 13.0474 17.4129 13.0164 17.3988 12.9823C17.3847 12.9482 17.3774 12.9116 17.3774 12.8746V11.4692C17.3774 11.3946 17.4071 11.3231 17.4598 11.2704C17.5126 11.2176 17.5841 11.188 17.6587 11.188C17.7333 11.188 17.8048 11.2176 17.8576 11.2704C17.9103 11.3231 17.9399 11.3946 17.9399 11.4692V12.8746C17.94 12.9116 17.9327 12.9482 17.9186 12.9823C17.9044 13.0164 17.8837 13.0474 17.8576 13.0736C17.8315 13.0997 17.8005 13.1204 17.7663 13.1345C17.7322 13.1487 17.6956 13.1559 17.6587 13.1559V13.1559Z" fill="white"/>
<path d="M13.4355 17.376C12.2425 17.3747 11.0987 16.9001 10.2551 16.0565C9.41146 15.2129 8.93691 14.0691 8.93555 12.876C8.93555 12.8014 8.96518 12.7299 9.01792 12.6772C9.07067 12.6244 9.1422 12.5948 9.2168 12.5948C9.29139 12.5948 9.36293 12.6244 9.41567 12.6772C9.46842 12.7299 9.49805 12.8014 9.49805 12.876C9.49805 13.9203 9.91289 14.9218 10.6513 15.6603C11.3897 16.3987 12.3913 16.8135 13.4355 16.8135C14.4798 16.8135 15.4814 16.3987 16.2198 15.6603C16.9582 14.9218 17.373 13.9203 17.373 12.876C17.373 12.8014 17.4027 12.7299 17.4554 12.6772C17.5082 12.6244 17.5797 12.5948 17.6543 12.5948C17.7289 12.5948 17.8004 12.6244 17.8532 12.6772C17.9059 12.7299 17.9355 12.8014 17.9355 12.876C17.9342 14.0691 17.4596 15.2129 16.616 16.0565C15.7724 16.9001 14.6286 17.3747 13.4355 17.376V17.376ZM18.498 10.6255C18.4611 10.6255 18.4245 10.6182 18.3904 10.6041C18.3563 10.59 18.3252 10.5693 18.2991 10.5432C18.273 10.517 18.2523 10.486 18.2382 10.4519C18.224 10.4178 18.2168 10.3812 18.2168 10.3442C18.2168 9.07617 17.7131 7.86004 16.8164 6.96338C15.9197 6.06673 14.7036 5.56299 13.4355 5.56299C12.1675 5.56299 10.9514 6.06673 10.0547 6.96338C9.15803 7.86004 8.6543 9.07617 8.6543 10.3442C8.6543 10.4188 8.62467 10.4904 8.57192 10.5431C8.51918 10.5959 8.44764 10.6255 8.37305 10.6255C8.29845 10.6255 8.22692 10.5959 8.17417 10.5431C8.12143 10.4904 8.0918 10.4188 8.0918 10.3442C8.0918 8.92699 8.6548 7.56778 9.65695 6.56564C10.6591 5.56349 12.0183 5.00049 13.4355 5.00049C14.8528 5.00049 16.212 5.56349 17.2141 6.56564C18.2163 7.56778 18.7793 8.92699 18.7793 10.3442C18.7793 10.3812 18.7721 10.4178 18.7579 10.4519C18.7438 10.486 18.7231 10.517 18.697 10.5432C18.6708 10.5693 18.6398 10.59 18.6057 10.6041C18.5716 10.6182 18.535 10.6255 18.498 10.6255V10.6255Z" fill="white"/>
<path d="M9.2168 13.1573C9.17986 13.1573 9.14327 13.15 9.10914 13.1359C9.07501 13.1218 9.044 13.1011 9.01788 13.0749C8.99176 13.0488 8.97104 13.0178 8.95691 12.9837C8.94279 12.9495 8.93553 12.913 8.93555 12.876V11.188C8.93555 11.1134 8.96518 11.0419 9.01792 10.9891C9.07067 10.9364 9.1422 10.9067 9.2168 10.9067C9.29139 10.9067 9.36293 10.9364 9.41567 10.9891C9.46842 11.0419 9.49805 11.1134 9.49805 11.188V12.8761C9.49807 12.913 9.4908 12.9496 9.47667 12.9837C9.46255 13.0178 9.44183 13.0488 9.41571 13.075C9.38959 13.1011 9.35858 13.1218 9.32445 13.1359C9.29032 13.15 9.25374 13.1573 9.2168 13.1573V13.1573ZM17.6543 13.1573C17.6174 13.1573 17.5808 13.15 17.5466 13.1359C17.5125 13.1218 17.4815 13.1011 17.4554 13.0749C17.4293 13.0488 17.4085 13.0178 17.3944 12.9837C17.3803 12.9495 17.373 12.913 17.373 12.876V11.188C17.373 11.1134 17.4027 11.0419 17.4554 10.9891C17.5082 10.9364 17.5797 10.9067 17.6543 10.9067C17.7289 10.9067 17.8004 10.9364 17.8532 10.9891C17.9059 11.0419 17.9355 11.1134 17.9355 11.188V12.8761C17.9356 12.913 17.9283 12.9496 17.9142 12.9837C17.9 13.0178 17.8793 13.0488 17.8532 13.075C17.8271 13.1011 17.7961 13.1218 17.7619 13.1359C17.7278 13.15 17.6912 13.1573 17.6543 13.1573V13.1573Z" fill="white"/>
<path d="M17.6537 11.4692H9.21729C9.14269 11.4692 9.07116 11.4396 9.01841 11.3869C8.96567 11.3341 8.93604 11.2626 8.93604 11.188C8.93604 11.1134 8.96567 11.0419 9.01841 10.9891C9.07116 10.9364 9.14269 10.9067 9.21729 10.9067H17.6537C17.7283 10.9067 17.7998 10.9364 17.8526 10.9891C17.9053 11.0419 17.9349 11.1134 17.9349 11.188C17.9349 11.2626 17.9053 11.3341 17.8526 11.3869C17.7998 11.4396 17.7283 11.4692 17.6537 11.4692Z" fill="white"/>
<path d="M9.21683 11.4692C9.17989 11.4692 9.14331 11.462 9.10919 11.4478C9.07506 11.4337 9.04407 11.413 9.01799 11.3868L8.17368 10.543C8.14756 10.5169 8.12685 10.4859 8.11272 10.4518C8.09858 10.4177 8.09131 10.3811 8.09131 10.3442C8.09131 10.3073 8.09858 10.2707 8.11272 10.2366C8.12685 10.2025 8.14756 10.1715 8.17368 10.1453C8.19979 10.1192 8.23079 10.0985 8.26491 10.0844C8.29903 10.0702 8.3356 10.063 8.37253 10.063C8.40946 10.063 8.44603 10.0702 8.48015 10.0844C8.51427 10.0985 8.54527 10.1192 8.57138 10.1453L9.41569 10.9891C9.45501 11.0284 9.48179 11.0785 9.49264 11.1331C9.50349 11.1876 9.49792 11.2442 9.47663 11.2956C9.45535 11.3469 9.41931 11.3909 9.37307 11.4218C9.32683 11.4527 9.27247 11.4692 9.21685 11.4692L9.21683 11.4692ZM17.6543 11.4692C17.5987 11.4692 17.5443 11.4527 17.4981 11.4218C17.4519 11.3909 17.4158 11.347 17.3945 11.2956C17.3733 11.2442 17.3677 11.1876 17.3785 11.1331C17.3894 11.0785 17.4162 11.0284 17.4555 10.9891L18.2992 10.1454C18.3253 10.1189 18.3563 10.0979 18.3905 10.0835C18.4247 10.0691 18.4614 10.0617 18.4985 10.0615C18.5356 10.0614 18.5724 10.0686 18.6067 10.0827C18.641 10.0969 18.6722 10.1177 18.6984 10.1439C18.7246 10.1701 18.7454 10.2013 18.7596 10.2356C18.7737 10.2699 18.7809 10.3067 18.7808 10.3438C18.7806 10.3809 18.7732 10.4176 18.7588 10.4518C18.7444 10.486 18.7234 10.517 18.6969 10.543L17.8532 11.3868C17.8271 11.413 17.7961 11.4337 17.762 11.4478C17.7279 11.462 17.6913 11.4692 17.6543 11.4692V11.4692Z" fill="white"/>
<path d="M18.4981 10.6255H8.37256C8.29797 10.6255 8.22643 10.5959 8.17368 10.5431C8.12094 10.4904 8.09131 10.4188 8.09131 10.3442C8.09131 10.2696 8.12094 10.1981 8.17368 10.1454C8.22643 10.0926 8.29797 10.063 8.37256 10.063H18.4981C18.5727 10.063 18.6443 10.0926 18.697 10.1454C18.7497 10.1981 18.7794 10.2696 18.7794 10.3442C18.7794 10.4188 18.7497 10.4904 18.697 10.5431C18.6443 10.5959 18.5727 10.6255 18.4981 10.6255H18.4981ZM17.6538 14.5613H17.4146C17.34 14.5613 17.2685 14.5317 17.2157 14.4789C17.163 14.4262 17.1333 14.3547 17.1333 14.2801C17.1333 14.2055 17.163 14.1339 17.2157 14.0812C17.2685 14.0285 17.34 13.9988 17.4146 13.9988H17.6538C17.7284 13.9988 17.7999 14.0285 17.8527 14.0812C17.9054 14.1339 17.9351 14.2055 17.9351 14.2801C17.9351 14.3547 17.9054 14.4262 17.8527 14.4789C17.7999 14.5317 17.7284 14.5613 17.6538 14.5613ZM9.45691 14.5646H8.37311C8.29851 14.5646 8.22698 14.535 8.17423 14.4822C8.12149 14.4295 8.09186 14.358 8.09186 14.2834C8.09186 14.2088 8.12149 14.1372 8.17423 14.0845C8.22698 14.0318 8.29851 14.0021 8.37311 14.0021H9.45691C9.5315 14.0021 9.60304 14.0318 9.65578 14.0845C9.70853 14.1372 9.73816 14.2088 9.73816 14.2834C9.73816 14.358 9.70853 14.4295 9.65578 14.4822C9.60304 14.535 9.5315 14.5646 9.45691 14.5646Z" fill="white"/>
<path d="M18.7787 12.8551C18.7417 12.8552 18.7052 12.8479 18.671 12.8338C18.6369 12.8196 18.6059 12.7989 18.5798 12.7728C18.5536 12.7467 18.5329 12.7157 18.5188 12.6815C18.5047 12.6474 18.4974 12.6108 18.4974 12.5739V10.6255C18.4228 10.6255 18.3513 10.5958 18.2986 10.5431C18.2458 10.4904 18.2162 10.4188 18.2162 10.3442C18.2162 10.2696 18.2458 10.1981 18.2986 10.1453C18.3513 10.0926 18.4228 10.063 18.4974 10.063C18.6466 10.0632 18.7895 10.1225 18.895 10.2279C19.0004 10.3334 19.0597 10.4763 19.0599 10.6255V12.5739C19.06 12.6108 19.0527 12.6474 19.0386 12.6815C19.0244 12.7157 19.0037 12.7467 18.9776 12.7728C18.9515 12.7989 18.9205 12.8196 18.8863 12.8338C18.8522 12.8479 18.8156 12.8552 18.7787 12.8551V12.8551ZM8.37354 14.5635C8.22441 14.5633 8.08145 14.504 7.976 14.3985C7.87055 14.2931 7.81123 14.1501 7.81104 14.001V10.6255C7.81123 10.4763 7.87055 10.3334 7.976 10.2279C8.08145 10.1225 8.22441 10.0632 8.37354 10.063C8.44813 10.0629 8.51971 10.0924 8.57253 10.1451C8.62535 10.1977 8.65509 10.2692 8.6552 10.3438C8.65531 10.4184 8.62578 10.49 8.57311 10.5428C8.52045 10.5956 8.44895 10.6254 8.37436 10.6255L8.37354 14.001C8.44813 14.001 8.51966 14.0307 8.57241 14.0834C8.62515 14.1362 8.65479 14.2077 8.65479 14.2823C8.65479 14.3569 8.62515 14.4284 8.57241 14.4812C8.51966 14.5339 8.44813 14.5635 8.37354 14.5635V14.5635ZM14.5695 10.6255C14.5326 10.6255 14.496 10.6182 14.4619 10.6041C14.4278 10.59 14.3967 10.5693 14.3706 10.5431C14.3445 10.517 14.3238 10.486 14.3097 10.4519C14.2955 10.4177 14.2883 10.3812 14.2883 10.3442V5.40942C14.2883 5.33483 14.3179 5.26329 14.3707 5.21055C14.4234 5.15781 14.495 5.12817 14.5695 5.12817C14.6441 5.12817 14.7157 5.15781 14.7684 5.21055C14.8212 5.26329 14.8508 5.33483 14.8508 5.40942V10.3442C14.8508 10.3812 14.8436 10.4177 14.8294 10.4519C14.8153 10.486 14.7946 10.517 14.7685 10.5431C14.7423 10.5693 14.7113 10.59 14.6772 10.6041C14.6431 10.6182 14.6065 10.6255 14.5695 10.6255V10.6255ZM12.3195 10.6255C12.2826 10.6255 12.246 10.6182 12.2119 10.6041C12.1778 10.59 12.1467 10.5693 12.1206 10.5431C12.0945 10.517 12.0738 10.486 12.0597 10.4519C12.0455 10.4177 12.0383 10.3812 12.0383 10.3442V5.40942C12.0383 5.33483 12.0679 5.26329 12.1207 5.21055C12.1734 5.15781 12.245 5.12817 12.3195 5.12817C12.3941 5.12817 12.4657 5.15781 12.5184 5.21055C12.5712 5.26329 12.6008 5.33483 12.6008 5.40942V10.3442C12.6008 10.3812 12.5936 10.4177 12.5794 10.4519C12.5653 10.486 12.5446 10.517 12.5185 10.5431C12.4923 10.5693 12.4613 10.59 12.4272 10.6041C12.3931 10.6182 12.3565 10.6255 12.3195 10.6255V10.6255ZM20.1849 17.0926C20.148 17.0926 20.1114 17.0853 20.0773 17.0712C20.0431 17.0571 20.0121 17.0364 19.986 17.0102C19.9599 16.9841 19.9392 16.9531 19.9251 16.919C19.9109 16.8848 19.9037 16.8483 19.9037 16.8113C19.903 16.2148 19.6657 15.6429 19.2439 15.2211C18.8221 14.7993 18.2502 14.562 17.6537 14.5613C17.5791 14.5613 17.5076 14.5317 17.4548 14.4789C17.4021 14.4262 17.3724 14.3547 17.3724 14.2801C17.3724 14.2055 17.4021 14.1339 17.4548 14.0812C17.5076 14.0284 17.5791 13.9988 17.6537 13.9988C18.3993 13.9997 19.1142 14.2963 19.6415 14.8235C20.1687 15.3508 20.4653 16.0657 20.4662 16.8113C20.4662 16.8483 20.4589 16.8848 20.4448 16.919C20.4307 16.9531 20.41 16.9841 20.3839 17.0102C20.3577 17.0364 20.3267 17.0571 20.2926 17.0712C20.2585 17.0853 20.2219 17.0926 20.1849 17.0926V17.0926Z" fill="white"/>
<path d="M20.1851 15.1238C20.1481 15.1238 20.1115 15.1165 20.0774 15.1024C20.0433 15.0883 20.0123 15.0676 19.9861 15.0415C19.96 15.0153 19.9393 14.9843 19.9252 14.9502C19.911 14.9161 19.9038 14.8795 19.9038 14.8425C19.9031 14.246 19.6659 13.6741 19.244 13.2523C18.8222 12.8305 18.2503 12.5932 17.6538 12.5925C17.5792 12.5925 17.5077 12.5629 17.4549 12.5102C17.4022 12.4574 17.3726 12.3859 17.3726 12.3113C17.3726 12.2367 17.4022 12.1651 17.4549 12.1124C17.5077 12.0597 17.5792 12.03 17.6538 12.03C18.3995 12.0309 19.1143 12.3275 19.6416 12.8548C20.1688 13.382 20.4654 14.0969 20.4663 14.8425C20.4663 14.8795 20.4591 14.9161 20.4449 14.9502C20.4308 14.9843 20.4101 15.0153 20.384 15.0415C20.3579 15.0676 20.3268 15.0883 20.2927 15.1024C20.2586 15.1165 20.222 15.1238 20.1851 15.1238V15.1238Z" fill="white"/>
<path d="M20.185 17.0925C20.1481 17.0926 20.1115 17.0853 20.0773 17.0712C20.0432 17.057 20.0122 17.0363 19.9861 17.0102C19.96 16.9841 19.9392 16.9531 19.9251 16.9189C19.911 16.8848 19.9037 16.8482 19.9037 16.8113V14.8425C19.9037 14.7679 19.9334 14.6964 19.9861 14.6437C20.0389 14.5909 20.1104 14.5613 20.185 14.5613C20.2596 14.5613 20.3311 14.5909 20.3839 14.6437C20.4366 14.6964 20.4662 14.7679 20.4662 14.8425V16.8113C20.4663 16.8482 20.459 16.8848 20.4449 16.9189C20.4308 16.9531 20.41 16.9841 20.3839 17.0102C20.3578 17.0363 20.3268 17.057 20.2927 17.0712C20.2585 17.0853 20.2219 17.0926 20.185 17.0925V17.0925ZM7.81494 20.1877C7.778 20.1877 7.74142 20.1804 7.70729 20.1663C7.67315 20.1522 7.64214 20.1315 7.61602 20.1053C7.5899 20.0792 7.56918 20.0482 7.55506 20.0141C7.54093 19.9799 7.53367 19.9434 7.53369 19.9064C7.53424 19.3843 7.74189 18.8837 8.11109 18.5145C8.48028 18.1453 8.98087 17.9376 9.50299 17.9371C9.57758 17.9371 9.64912 17.9667 9.70186 18.0195C9.75461 18.0722 9.78424 18.1438 9.78424 18.2183C9.78424 18.2929 9.75461 18.3645 9.70186 18.4172C9.64912 18.47 9.57758 18.4996 9.50299 18.4996C9.13002 18.5 8.77245 18.6484 8.50873 18.9121C8.245 19.1759 8.09664 19.5334 8.09619 19.9064C8.09621 19.9434 8.08895 19.9799 8.07483 20.0141C8.0607 20.0482 8.03998 20.0792 8.01386 20.1053C7.98774 20.1315 7.95673 20.1522 7.9226 20.1663C7.88846 20.1804 7.85188 20.1877 7.81494 20.1877V20.1877ZM19.0649 20.1874C19.028 20.1874 18.9914 20.1801 18.9573 20.166C18.9232 20.1519 18.8921 20.1312 18.866 20.1051C18.8399 20.0789 18.8192 20.0479 18.8051 20.0138C18.7909 19.9797 18.7837 19.9431 18.7837 19.9061C18.7833 19.5333 18.635 19.1759 18.3713 18.9122C18.1077 18.6486 17.7503 18.5003 17.3774 18.4999C17.3028 18.4999 17.2313 18.4702 17.1786 18.4175C17.1258 18.3648 17.0962 18.2932 17.0962 18.2186C17.0962 18.144 17.1258 18.0725 17.1786 18.0198C17.2313 17.967 17.3028 17.9374 17.3774 17.9374C17.8994 17.938 18.3998 18.1456 18.7689 18.5147C19.1379 18.8838 19.3456 19.3842 19.3462 19.9061C19.3462 19.9431 19.339 19.9797 19.3248 20.0138C19.3107 20.0479 19.29 20.0789 19.2639 20.1051C19.2377 20.1312 19.2067 20.1519 19.1726 20.166C19.1385 20.1801 19.1019 20.1874 19.0649 20.1874V20.1874Z" fill="white"/>
<path d="M11.1896 18.5L9.50293 18.4997C9.42834 18.4997 9.3568 18.4701 9.30406 18.4173C9.25131 18.3646 9.22168 18.2931 9.22168 18.2185C9.22168 18.1439 9.25131 18.0723 9.30406 18.0196C9.3568 17.9669 9.42834 17.9372 9.50293 17.9372L11.1896 17.9375C11.2642 17.9375 11.3357 17.9671 11.3885 18.0199C11.4412 18.0726 11.4709 18.1442 11.4709 18.2188C11.4709 18.2933 11.4412 18.3649 11.3885 18.4176C11.3357 18.4704 11.2642 18.5 11.1896 18.5ZM17.3774 18.5L15.6902 18.4997C15.6156 18.4997 15.544 18.4701 15.4913 18.4173C15.4385 18.3646 15.4089 18.2931 15.4089 18.2185C15.4089 18.1439 15.4385 18.0723 15.4913 18.0196C15.544 17.9669 15.6156 17.9372 15.6902 17.9372L17.3774 17.9375C17.452 17.9375 17.5235 17.9671 17.5763 18.0199C17.629 18.0726 17.6586 18.1442 17.6586 18.2188C17.6586 18.2933 17.629 18.3649 17.5763 18.4176C17.5235 18.4704 17.452 18.5 17.3774 18.5ZM19.0649 22.9995C19.0279 22.9995 18.9914 22.9922 18.9572 22.9781C18.9231 22.964 18.8921 22.9432 18.866 22.9171C18.8398 22.891 18.8191 22.86 18.805 22.8259C18.7909 22.7917 18.7836 22.7551 18.7836 22.7182V19.9063C18.7836 19.8317 18.8133 19.7601 18.866 19.7074C18.9188 19.6546 18.9903 19.625 19.0649 19.625C19.1395 19.625 19.211 19.6546 19.2638 19.7074C19.3165 19.7601 19.3461 19.8317 19.3461 19.9063V22.7182C19.3462 22.7551 19.3389 22.7917 19.3248 22.8258C19.3106 22.86 19.2899 22.891 19.2638 22.9171C19.2377 22.9432 19.2067 22.964 19.1725 22.9781C19.1384 22.9922 19.1018 22.9995 19.0649 22.9995V22.9995ZM11.7524 17.937C11.7154 17.937 11.6789 17.9297 11.6447 17.9156C11.6106 17.9015 11.5796 17.8807 11.5535 17.8546C11.5273 17.8285 11.5066 17.7975 11.4925 17.7634C11.4784 17.7292 11.4711 17.6926 11.4711 17.6557V16.7422C11.4711 16.6676 11.5008 16.5961 11.5535 16.5433C11.6063 16.4906 11.6778 16.4609 11.7524 16.4609C11.827 16.4609 11.8985 16.4906 11.9513 16.5433C12.004 16.5961 12.0336 16.6676 12.0336 16.7422V17.6557C12.0337 17.6926 12.0264 17.7292 12.0123 17.7633C11.9981 17.7975 11.9774 17.8285 11.9513 17.8546C11.9252 17.8807 11.8942 17.9015 11.86 17.9156C11.8259 17.9297 11.7893 17.937 11.7524 17.937V17.937ZM15.1274 17.937C15.0904 17.937 15.0539 17.9297 15.0197 17.9156C14.9856 17.9015 14.9546 17.8807 14.9285 17.8546C14.9023 17.8285 14.8816 17.7975 14.8675 17.7634C14.8534 17.7292 14.8461 17.6926 14.8461 17.6557V16.7422C14.8461 16.6676 14.8758 16.5961 14.9285 16.5433C14.9813 16.4906 15.0528 16.4609 15.1274 16.4609C15.202 16.4609 15.2735 16.4906 15.3263 16.5433C15.379 16.5961 15.4086 16.6676 15.4086 16.7422V17.6557C15.4087 17.6926 15.4014 17.7292 15.3873 17.7633C15.3731 17.7975 15.3524 17.8285 15.3263 17.8546C15.3002 17.8807 15.2692 17.9015 15.235 17.9156C15.2009 17.9297 15.1643 17.937 15.1274 17.937V17.937ZM13.4454 19.6245C13.3708 19.6248 13.2991 19.5955 13.2461 19.543C13.1931 19.4906 13.1631 19.4192 13.1628 19.3446C13.1624 19.27 13.1917 19.1983 13.2442 19.1453C13.2966 19.0923 13.368 19.0623 13.4426 19.062H13.4454C13.52 19.062 13.5915 19.0916 13.6442 19.1443C13.697 19.1971 13.7266 19.2686 13.7266 19.3432C13.7266 19.4178 13.697 19.4893 13.6442 19.5421C13.5915 19.5948 13.52 19.6245 13.4454 19.6245ZM13.4454 20.7495C13.4084 20.7496 13.3718 20.7425 13.3376 20.7286C13.3034 20.7146 13.2723 20.694 13.2461 20.668C13.2199 20.6421 13.199 20.6112 13.1847 20.5771C13.1704 20.543 13.1629 20.5065 13.1628 20.4696C13.1626 20.4326 13.1697 20.396 13.1836 20.3618C13.1976 20.3276 13.2182 20.2965 13.2442 20.2703C13.2701 20.2441 13.301 20.2232 13.3351 20.2089C13.3692 20.1946 13.4057 20.1871 13.4426 20.187H13.4454C13.52 20.187 13.5915 20.2166 13.6442 20.2693C13.697 20.3221 13.7266 20.3936 13.7266 20.4682C13.7266 20.5428 13.697 20.6143 13.6442 20.6671C13.5915 20.7198 13.52 20.7495 13.4454 20.7495ZM12.0792 19.1128C12.0148 19.1129 11.9524 19.0909 11.9023 19.0505C11.8521 19.01 11.8174 18.9537 11.8038 18.8907C11.7903 18.8278 11.7987 18.7621 11.8277 18.7047C11.8568 18.6472 11.9046 18.6014 11.9633 18.575L13.3243 17.9617C13.358 17.9464 13.3944 17.9379 13.4313 17.9366C13.4683 17.9354 13.5052 17.9415 13.5399 17.9546C13.5745 17.9676 13.6062 17.9874 13.6332 18.0127C13.6602 18.0381 13.6819 18.0685 13.6971 18.1023C13.7123 18.136 13.7207 18.1724 13.7219 18.2094C13.723 18.2464 13.7168 18.2833 13.7036 18.3179C13.6905 18.3525 13.6706 18.3841 13.6452 18.4111C13.6198 18.438 13.5893 18.4596 13.5555 18.4747L12.1946 19.088C12.1583 19.1043 12.119 19.1127 12.0792 19.1128V19.1128Z" fill="white"/>
<path d="M14.8008 19.112C14.7611 19.1119 14.7219 19.1035 14.6857 19.0872L13.3245 18.4748C13.2908 18.4597 13.2603 18.438 13.2349 18.4112C13.2095 18.3843 13.1897 18.3526 13.1765 18.3181C13.1633 18.2835 13.1571 18.2467 13.1582 18.2097C13.1593 18.1728 13.1677 18.1364 13.1828 18.1026C13.198 18.0689 13.2197 18.0385 13.2466 18.0131C13.2735 17.9878 13.3052 17.968 13.3398 17.9549C13.3744 17.9418 13.4112 17.9357 13.4482 17.9369C13.4852 17.938 13.5215 17.9465 13.5552 17.9617L14.9164 18.5742C14.9752 18.6006 15.0231 18.6463 15.0521 18.7038C15.0812 18.7612 15.0896 18.8269 15.0761 18.8898C15.0626 18.9528 15.0279 19.0092 14.9778 19.0496C14.9277 19.09 14.8652 19.112 14.8008 19.112ZM10.6274 19.0625C10.5718 19.0625 10.5174 19.046 10.4712 19.0151C10.4249 18.9842 10.3889 18.9403 10.3676 18.8889C10.3463 18.8375 10.3407 18.781 10.3516 18.7264C10.3624 18.6719 10.3892 18.6218 10.4285 18.5824L11.5535 17.4569C11.6063 17.4041 11.6778 17.3745 11.7524 17.3745C11.827 17.3745 11.8985 17.4041 11.9512 17.4569C12.004 17.5096 12.0336 17.5811 12.0336 17.6557C12.0336 17.7303 12.004 17.8018 11.9512 17.8546L10.8262 18.9801C10.8002 19.0063 10.7692 19.027 10.735 19.0412C10.7009 19.0553 10.6643 19.0626 10.6274 19.0625V19.0625Z" fill="white"/>
<path d="M11.4714 20.1871C11.4278 20.1871 11.3846 20.177 11.3456 20.1575C11.3065 20.138 11.2724 20.1097 11.2462 20.0747L10.4025 18.9503C10.3578 18.8906 10.3387 18.8157 10.3493 18.7419C10.3598 18.6681 10.3992 18.6016 10.4588 18.5569C10.5184 18.5121 10.5933 18.4928 10.6671 18.5033C10.7409 18.5137 10.8075 18.553 10.8524 18.6124L11.6961 19.7369C11.7275 19.7786 11.7466 19.8283 11.7513 19.8803C11.7561 19.9324 11.7462 19.9847 11.7229 20.0314C11.6996 20.0781 11.6637 20.1174 11.6193 20.1449C11.5749 20.1724 11.5237 20.187 11.4714 20.1871V20.1871Z" fill="white"/>
<path d="M10.9086 20.7495C10.853 20.7495 10.7986 20.733 10.7524 20.7021C10.7062 20.6711 10.6701 20.6272 10.6488 20.5758C10.6276 20.5245 10.622 20.4679 10.6328 20.4134C10.6437 20.3588 10.6705 20.3087 10.7098 20.2694L11.2723 19.7069C11.325 19.6541 11.3966 19.6245 11.4711 19.6245C11.5457 19.6245 11.6173 19.6541 11.67 19.7069C11.7227 19.7596 11.7524 19.8311 11.7524 19.9057C11.7524 19.9803 11.7227 20.0518 11.67 20.1046L11.1075 20.6671C11.0814 20.6932 11.0504 20.714 11.0163 20.7281C10.9822 20.7423 10.9456 20.7495 10.9086 20.7495V20.7495Z" fill="white"/>
<path d="M12.5966 22.9994C12.5529 22.9995 12.5097 22.9894 12.4706 22.9698C12.4315 22.9503 12.3975 22.9218 12.3714 22.8868L10.6839 20.6368C10.6617 20.6073 10.6456 20.5736 10.6365 20.5379C10.6273 20.5021 10.6253 20.4649 10.6305 20.4283C10.6357 20.3918 10.6481 20.3566 10.6669 20.3249C10.6858 20.2931 10.7106 20.2654 10.7402 20.2432C10.7697 20.2211 10.8033 20.2049 10.8391 20.1958C10.8749 20.1866 10.9121 20.1846 10.9486 20.1898C10.9852 20.1951 11.0203 20.2074 11.0521 20.2263C11.0839 20.2451 11.1116 20.27 11.1338 20.2995L12.8213 22.5495C12.8526 22.5913 12.8716 22.6409 12.8763 22.6929C12.881 22.7449 12.8711 22.7971 12.8478 22.8438C12.8245 22.8905 12.7886 22.9298 12.7443 22.9572C12.6999 22.9847 12.6488 22.9993 12.5966 22.9994V22.9994Z" fill="white"/>
<path d="M13.1585 22.9994C13.0971 22.9993 13.0374 22.9791 12.9885 22.9419C12.9396 22.9047 12.9042 22.8525 12.8877 22.7934L11.4814 17.7309C11.4615 17.659 11.4709 17.5821 11.5076 17.5171C11.5444 17.4522 11.6054 17.4045 11.6773 17.3845C11.7492 17.3646 11.8261 17.374 11.891 17.4107C11.956 17.4474 12.0037 17.5085 12.0236 17.5804L13.4299 22.6429C13.4498 22.7147 13.4403 22.7916 13.4036 22.8565C13.3669 22.9215 13.3059 22.9692 13.234 22.9892C13.2094 22.9959 13.184 22.9993 13.1585 22.9994V22.9994ZM16.2525 19.0624C16.2156 19.0624 16.179 19.0552 16.1449 19.041C16.1108 19.0269 16.0798 19.0062 16.0537 18.98L14.9287 17.8544C14.8766 17.8016 14.8476 17.7302 14.8479 17.656C14.8482 17.5818 14.8778 17.5108 14.9302 17.4583C14.9827 17.4058 15.0538 17.3762 15.128 17.3759C15.2022 17.3756 15.2735 17.4047 15.3264 17.4568L16.4514 18.5823C16.4907 18.6216 16.5175 18.6717 16.5283 18.7263C16.5392 18.7808 16.5336 18.8374 16.5123 18.8888C16.491 18.9401 16.455 18.9841 16.4088 19.015C16.3625 19.0459 16.3082 19.0624 16.2525 19.0624L16.2525 19.0624Z" fill="white"/>
<path d="M15.4085 20.1871C15.3563 20.187 15.3051 20.1724 15.2607 20.1449C15.2162 20.1174 15.1804 20.0781 15.157 20.0314C15.1337 19.9847 15.1239 19.9324 15.1286 19.8803C15.1333 19.8283 15.1524 19.7786 15.1838 19.7369L16.0276 18.6124C16.0724 18.553 16.1391 18.5137 16.2128 18.5033C16.2866 18.4928 16.3615 18.5121 16.4211 18.5568C16.4807 18.6016 16.5201 18.6681 16.5307 18.7419C16.5412 18.8157 16.5221 18.8906 16.4775 18.9503L15.6337 20.0747C15.6075 20.1097 15.5735 20.138 15.5344 20.1575C15.4953 20.177 15.4522 20.1871 15.4085 20.1871Z" fill="white"/>
<path d="M15.9711 20.7495C15.9342 20.7495 15.8976 20.7422 15.8635 20.7281C15.8294 20.714 15.7984 20.6932 15.7723 20.6671L15.2098 20.1046C15.1575 20.0517 15.1282 19.9803 15.1284 19.906C15.1286 19.8317 15.1582 19.7604 15.2108 19.7079C15.2633 19.6553 15.3346 19.6257 15.4089 19.6255C15.4833 19.6253 15.5547 19.6546 15.6075 19.7069L16.17 20.2694C16.2093 20.3087 16.2361 20.3588 16.2469 20.4133C16.2578 20.4679 16.2522 20.5244 16.2309 20.5758C16.2096 20.6272 16.1736 20.6711 16.1274 20.702C16.0811 20.7329 16.0268 20.7494 15.9711 20.7494L15.9711 20.7495Z" fill="white"/>
<path d="M14.2835 22.9994C14.2313 22.9993 14.1802 22.9847 14.1358 22.9572C14.0915 22.9298 14.0556 22.8905 14.0323 22.8438C14.009 22.7971 13.9991 22.7449 14.0038 22.6929C14.0085 22.6409 14.0275 22.5913 14.0588 22.5495L15.7463 20.2995C15.791 20.2399 15.8576 20.2004 15.9315 20.1898C16.0053 20.1793 16.0802 20.1985 16.1399 20.2432C16.1996 20.2879 16.239 20.3545 16.2496 20.4283C16.2601 20.5022 16.2409 20.5771 16.1962 20.6368L14.5087 22.8868C14.4826 22.9218 14.4486 22.9503 14.4095 22.9698C14.3704 22.9894 14.3272 22.9995 14.2835 22.9994Z" fill="white"/>
<path d="M13.7215 22.9994C13.696 22.9993 13.6706 22.9959 13.646 22.9892C13.5741 22.9692 13.5131 22.9215 13.4764 22.8565C13.4397 22.7916 13.4302 22.7147 13.4501 22.6429L14.8564 17.5804C14.8663 17.5448 14.8831 17.5114 14.9058 17.4823C14.9286 17.4532 14.9569 17.4289 14.989 17.4107C15.0212 17.3925 15.0566 17.3808 15.0933 17.3764C15.1299 17.3719 15.1671 17.3746 15.2027 17.3845C15.2383 17.3944 15.2716 17.4112 15.3008 17.434C15.3299 17.4567 15.3542 17.485 15.3724 17.5171C15.3906 17.5493 15.4022 17.5847 15.4067 17.6214C15.4112 17.6581 15.4085 17.6953 15.3986 17.7309L13.9923 22.7934C13.9758 22.8525 13.9405 22.9047 13.8916 22.9419C13.8427 22.9791 13.7829 22.9993 13.7215 22.9994Z" fill="white"/>
</svg>
