<svg width="57" height="26" viewBox="0 0 57 26" fill="none" xmlns="http://www.w3.org/2000/svg">
<path d="M5.46064 19.009H5.81133L5.48291 20.376C5.43281 20.5768 5.44394 20.733 5.51074 20.8335C5.57754 20.9339 5.7 20.9841 5.88369 20.9841C6.06181 20.9841 6.21211 20.9339 6.329 20.8335C6.4459 20.733 6.52383 20.5768 6.57392 20.376L6.90234 19.009H7.25859L6.92461 20.4094C6.85224 20.7107 6.72422 20.9395 6.53496 21.0901C6.35127 21.2408 6.10635 21.3189 5.80576 21.3189C5.50517 21.3189 5.29922 21.2463 5.18789 21.0957C5.07656 20.9451 5.05429 20.7163 5.12666 20.415L5.46064 19.009ZM7.20849 21.2575L7.76513 18.9197L8.82275 20.2923C8.85058 20.3313 8.87842 20.3704 8.90625 20.415C8.93408 20.4597 8.96191 20.5099 8.99531 20.5657L9.36826 19.009H9.69668L9.14004 21.3412L8.06015 19.9408C8.03232 19.9017 8.00449 19.8627 7.97666 19.8236C7.94883 19.779 7.92656 19.7399 7.90986 19.6897L7.53691 21.2519H7.20849V21.2575ZM9.66885 21.2575L10.2032 19.009H10.5595L10.0251 21.2575H9.66885ZM10.5316 21.2575L11.066 19.009H12.2851L12.2127 19.3215H11.3499L11.2163 19.8794H12.0791L12.0012 20.1974H11.1384L10.8879 21.2519H10.5316V21.2575ZM12.1459 21.2575L12.6803 19.009H13.0365L12.5021 21.2575H12.1459ZM13.0087 21.2575L13.5431 19.009H14.7621L14.6897 19.3215H13.827L13.6934 19.885H14.5562L14.4782 20.203H13.6154L13.4429 20.9283H14.3057L14.2277 21.2575H13.0087ZM14.6396 21.2575L15.174 19.009H15.6527C15.9645 19.009 16.1815 19.0257 16.2984 19.0592C16.4153 19.0927 16.5155 19.1429 16.5935 19.221C16.6937 19.3215 16.7604 19.4498 16.7883 19.6004C16.8161 19.7566 16.805 19.9352 16.7604 20.1305C16.7103 20.3313 16.638 20.5043 16.5378 20.6605C16.4376 20.8167 16.3096 20.9395 16.1593 21.0399C16.0479 21.118 15.9255 21.1682 15.7919 21.2017C15.6639 21.2352 15.469 21.2519 15.213 21.2519H15.1184H14.6396V21.2575ZM15.0738 20.9227H15.3744C15.5358 20.9227 15.6639 20.9116 15.7529 20.8893C15.842 20.8669 15.9199 20.8279 15.9923 20.7777C16.0925 20.7051 16.176 20.6159 16.2428 20.5043C16.3096 20.3983 16.3597 20.27 16.3931 20.1249C16.4265 19.9798 16.4376 19.8571 16.4209 19.7511C16.4042 19.6451 16.3652 19.5502 16.2984 19.4777C16.2483 19.4219 16.1871 19.3884 16.1036 19.3661C16.0201 19.3438 15.8921 19.3326 15.7084 19.3326H15.5804H15.4523L15.0738 20.9227ZM18.397 20.2476L18.1576 21.2575H17.8236L18.358 19.009H18.8979C19.0594 19.009 19.1707 19.0202 19.2431 19.0369C19.3154 19.0536 19.3711 19.0815 19.4156 19.1262C19.4713 19.1764 19.5103 19.2489 19.527 19.3382C19.5436 19.4275 19.5381 19.5223 19.5158 19.6283C19.488 19.7343 19.449 19.8348 19.3878 19.924C19.3266 20.0133 19.2542 20.0858 19.1763 20.136C19.1095 20.1751 19.0371 20.2086 18.9592 20.2253C18.8812 20.2421 18.7588 20.2532 18.6029 20.2532H18.5306H18.397V20.2476ZM18.4916 19.9463H18.5807C18.7755 19.9463 18.9146 19.924 18.9926 19.8794C19.0705 19.8348 19.1206 19.7566 19.1484 19.6451C19.1763 19.5279 19.1596 19.4386 19.1039 19.394C19.0427 19.3438 18.9202 19.3215 18.7365 19.3215H18.6475L18.4916 19.9463ZM20.7237 21.2575L20.6124 20.6772H19.744L19.3544 21.2575H18.9814L20.5957 18.9197L21.0967 21.2575H20.7237ZM19.9556 20.3704H20.5623L20.4621 19.8571C20.4565 19.8236 20.451 19.7845 20.451 19.7455C20.4454 19.7009 20.4454 19.6562 20.4454 19.606C20.4231 19.6562 20.4009 19.7009 20.373 19.7455C20.3508 19.7901 20.3285 19.8292 20.3062 19.8627L19.9556 20.3704ZM21.6088 21.2575L21.8537 20.2309L21.4084 19.0146H21.7813L22.0597 19.779C22.0652 19.8013 22.0708 19.8236 22.0819 19.8571C22.0931 19.8906 22.0986 19.924 22.1098 19.9575C22.132 19.924 22.1543 19.8906 22.1766 19.8571C22.1988 19.8236 22.2211 19.7957 22.2434 19.7678L22.8946 19.0146H23.2509L22.21 20.2253L21.965 21.2519H21.6088V21.2575ZM24.9987 20.1472C24.9987 20.1305 25.0043 20.0803 25.0154 20.0021C25.021 19.9352 25.0266 19.885 25.0321 19.8403C25.0099 19.8906 24.9876 19.9408 24.9598 19.9966C24.9319 20.0468 24.8985 20.1026 24.8596 20.1528L24.0023 21.3524L23.724 20.1305C23.7129 20.0803 23.7018 20.03 23.6962 19.9854C23.6906 19.9408 23.6851 19.8906 23.6851 19.8459C23.6739 19.8906 23.6572 19.9408 23.6405 19.9966C23.6238 20.0468 23.6016 20.1026 23.5737 20.1584L23.0728 21.2631H22.7443L23.8186 18.9197L24.1248 20.3369C24.1304 20.3592 24.1359 20.3983 24.1415 20.4485C24.1471 20.4987 24.1582 20.5657 24.1693 20.6438C24.2083 20.5768 24.2584 20.4987 24.3252 20.3983C24.3419 20.3704 24.3586 20.3536 24.3642 20.3369L25.3327 18.9197L25.2993 21.2631H24.9709L24.9987 20.1472ZM25.5888 21.2575L26.1231 19.009H27.3422L27.2698 19.3215H26.407L26.2734 19.885H27.1362L27.0583 20.203H26.1955L26.0229 20.9283H26.8857L26.8078 21.2575H25.5888ZM27.2142 21.2575L27.7708 18.9197L28.8284 20.2923C28.8562 20.3313 28.8841 20.3704 28.9119 20.415C28.9397 20.4597 28.9676 20.5099 29.001 20.5657L29.3739 19.009H29.7023L29.1457 21.3412L28.0658 19.9408C28.038 19.9017 28.0102 19.8627 27.9823 19.8236C27.9545 19.779 27.9322 19.7399 27.9155 19.6897L27.5426 21.2519H27.2142V21.2575ZM30.8379 19.3159L30.3759 21.2519H30.0196L30.4816 19.3159H29.9027L29.9751 19.0034H31.4892L31.4168 19.3159H30.8379ZM31.2108 20.8056L31.5281 20.6717C31.5337 20.7721 31.5615 20.8502 31.6228 20.9004C31.684 20.9506 31.7675 20.9785 31.8788 20.9785C31.9846 20.9785 32.0736 20.9506 32.1516 20.8893C32.2295 20.8279 32.2796 20.7498 32.3019 20.6494C32.3353 20.5154 32.2573 20.3983 32.0681 20.2978C32.0402 20.2811 32.0235 20.27 32.0068 20.2644C31.7953 20.1416 31.6617 20.0356 31.6061 19.9352C31.5504 19.8348 31.5393 19.7176 31.5727 19.5781C31.6172 19.394 31.7118 19.2489 31.8621 19.1318C32.0124 19.0202 32.1794 18.9588 32.3798 18.9588C32.5412 18.9588 32.6692 18.9923 32.7639 19.0536C32.8585 19.115 32.9086 19.2099 32.9253 19.327L32.6136 19.4721C32.5857 19.3996 32.5523 19.3494 32.5078 19.3159C32.4633 19.2824 32.4076 19.2657 32.3408 19.2657C32.2462 19.2657 32.1627 19.2936 32.0959 19.3438C32.0291 19.394 31.9846 19.4609 31.9623 19.5502C31.9289 19.6841 32.0235 19.8124 32.2406 19.9296C32.2573 19.9408 32.2685 19.9463 32.2796 19.9519C32.4688 20.0524 32.5969 20.1528 32.6525 20.2532C32.7082 20.3536 32.7193 20.4708 32.6859 20.6215C32.6358 20.8335 32.5301 21.0009 32.3687 21.1292C32.2072 21.2519 32.018 21.3189 31.7953 21.3189C31.6116 21.3189 31.4669 21.2742 31.3667 21.185C31.2554 21.0957 31.2053 20.9674 31.2108 20.8056ZM33.8326 21.2575L34.367 19.009H34.7232L34.1889 21.2575H33.8326ZM34.701 21.2575L35.2576 18.9197L36.3152 20.2923C36.3431 20.3313 36.3709 20.3704 36.3987 20.415C36.4266 20.4597 36.4544 20.5099 36.4878 20.5657L36.8607 19.009H37.1892L36.6325 21.3412L35.5526 19.9408C35.5248 19.9017 35.497 19.8627 35.4691 19.8236C35.4413 19.779 35.419 19.7399 35.4023 19.6897L35.0294 21.2519H34.701V21.2575ZM38.3247 19.3159L37.8627 21.2519H37.5064L37.9685 19.3159H37.3896L37.4619 19.0034H38.976L38.9036 19.3159H38.3247ZM38.7088 21.2575L39.2432 19.009H40.4678L40.3954 19.3215H39.5326L39.399 19.885H40.2618L40.1839 20.203H39.3211L39.1485 20.9283H40.0113L39.9334 21.2575H38.7088ZM40.9075 20.2476L40.6682 21.2519H40.3342L40.8686 19.0034H41.364C41.5087 19.0034 41.62 19.0146 41.6924 19.0313C41.7703 19.0481 41.8315 19.0815 41.8761 19.1262C41.9317 19.182 41.9651 19.2489 41.9818 19.3382C41.9985 19.4219 41.993 19.5167 41.9707 19.6227C41.9262 19.8013 41.8538 19.9463 41.7425 20.0468C41.6312 20.1472 41.492 20.2086 41.325 20.2309L41.8315 21.2519H41.4308L40.9465 20.2476H40.9075V20.2476ZM40.9966 19.9631H41.0634C41.2526 19.9631 41.3807 19.9408 41.453 19.8961C41.5254 19.8515 41.5755 19.7734 41.6033 19.6562C41.6312 19.5335 41.62 19.4442 41.5644 19.394C41.5087 19.3438 41.3918 19.3159 41.2137 19.3159H41.1469L40.9966 19.9631ZM42.0486 21.2575L42.583 19.009H43.8021L43.7297 19.3215H42.8669L42.7333 19.8794H43.5961L43.5182 20.1974H42.6554L42.4049 21.2519H42.0486V21.2575ZM44.9877 21.2575L44.8764 20.6772H44.008L43.6184 21.2575H43.2454L44.8597 18.9197L45.3606 21.2575H44.9877ZM44.214 20.3704H44.8207L44.7205 19.8571C44.7149 19.8236 44.7094 19.7845 44.7094 19.7455C44.7038 19.7009 44.7038 19.6562 44.7038 19.606C44.6815 19.6562 44.6593 19.7009 44.6314 19.7455C44.6092 19.7901 44.5869 19.8292 44.5646 19.8627L44.214 20.3704ZM47.6763 19.5558C47.5983 19.4665 47.5037 19.3996 47.4035 19.3605C47.3033 19.3159 47.192 19.2936 47.064 19.2936C46.8246 19.2936 46.6131 19.3717 46.4238 19.5279C46.2346 19.6841 46.1121 19.8906 46.0509 20.1416C45.9952 20.3815 46.0175 20.5824 46.1288 20.7442C46.2346 20.9004 46.4016 20.9785 46.6242 20.9785C46.7522 20.9785 46.8803 20.9562 47.0083 20.906C47.1363 20.8614 47.2644 20.7888 47.3979 20.694L47.2978 21.1069C47.1864 21.1794 47.0695 21.2296 46.9471 21.2631C46.8246 21.2966 46.7021 21.3133 46.5686 21.3133C46.4016 21.3133 46.2513 21.2854 46.1232 21.2296C45.9952 21.1738 45.8895 21.0901 45.806 20.9785C45.7225 20.8725 45.6724 20.7442 45.6501 20.5991C45.6278 20.4541 45.6334 20.2978 45.6779 20.1305C45.7169 19.9631 45.7837 19.8124 45.8728 19.6674C45.9618 19.5223 46.0787 19.394 46.2123 19.288C46.3459 19.1764 46.4906 19.0927 46.6465 19.0369C46.8023 18.9811 46.9582 18.9532 47.1196 18.9532C47.2477 18.9532 47.3646 18.97 47.4759 19.009C47.5816 19.0481 47.6818 19.1039 47.7709 19.182L47.6763 19.5558ZM47.7097 21.2575L48.244 19.009H49.4631L49.3907 19.3215H48.5279L48.3943 19.885H49.2571L49.1792 20.203H48.3164L48.1438 20.9283H49.0066L48.9287 21.2575H47.7097Z" fill="#3D3D3C"/>
<path d="M41.2304 17.0506H38.7867L42.1822 4.75922H44.6259L41.2304 17.0506ZM39.9612 5.14419C39.7942 4.90986 39.5326 4.79269 39.1764 4.79269H25.7502L25.0878 7.20299H27.5315H37.3005L36.588 9.7751H26.819V9.76952H24.3753L22.3491 17.1064H24.7928L26.151 12.1854H37.1335C37.4786 12.1854 37.8015 12.0682 38.1021 11.8339C38.4026 11.5996 38.603 11.3094 38.6977 10.9635L40.0559 6.04248C40.1616 5.67424 40.1282 5.37853 39.9612 5.14419ZM20.9241 16.2807C20.7905 16.7661 20.3452 17.1064 19.8442 17.1064H7.24747C6.90235 17.1064 6.6463 16.9893 6.47931 16.7549C6.31231 16.5206 6.27335 16.2305 6.37355 15.8845L9.4462 4.79269H11.8899L9.14562 14.7017H18.9202L21.6645 4.79269H24.1081L20.9241 16.2807Z" fill="#70706E"/>
<path d="M48.8452 4.78156L51.9346 10.9412L45.4386 17.1009L48.8452 4.78156Z" fill="#098041"/>
<path d="M46.6743 4.78156L49.7636 10.9412L43.2621 17.1009L46.6743 4.78156Z" fill="#E97626"/>
</svg>
