<svg width="14" height="15" viewBox="0 0 14 15" fill="none" xmlns="http://www.w3.org/2000/svg">
<path d="M3.70217 2.34375H9.29788C9.35615 2.34375 9.41204 2.3206 9.45325 2.27939C9.49445 2.23819 9.5176 2.1823 9.5176 2.12402C9.5176 2.06575 9.49445 2.00986 9.45325 1.96865C9.41204 1.92745 9.35615 1.9043 9.29788 1.9043H3.70217C3.6439 1.9043 3.58801 1.92745 3.5468 1.96865C3.5056 2.00986 3.48245 2.06575 3.48245 2.12402C3.48245 2.1823 3.5056 2.23819 3.5468 2.27939C3.58801 2.3206 3.6439 2.34375 3.70217 2.34375ZM3.70217 4.98047H9.29788C9.35615 4.98047 9.41204 4.95732 9.45325 4.91611C9.49445 4.87491 9.5176 4.81902 9.5176 4.76074C9.5176 4.70247 9.49445 4.64658 9.45325 4.60537C9.41204 4.56417 9.35615 4.54102 9.29788 4.54102H3.70217C3.6439 4.54102 3.58801 4.56417 3.5468 4.60537C3.5056 4.64658 3.48245 4.70247 3.48245 4.76074C3.48245 4.81902 3.5056 4.87491 3.5468 4.91611C3.58801 4.95732 3.6439 4.98047 3.70217 4.98047ZM3.70217 3.66211H9.29788C9.35615 3.66211 9.41204 3.63896 9.45325 3.59775C9.49445 3.55655 9.5176 3.50066 9.5176 3.44238C9.5176 3.38411 9.49445 3.32822 9.45325 3.28701C9.41204 3.24581 9.35615 3.22266 9.29788 3.22266H3.70217C3.6439 3.22266 3.58801 3.24581 3.5468 3.28701C3.5056 3.32822 3.48245 3.38411 3.48245 3.44238C3.48245 3.50066 3.5056 3.55655 3.5468 3.59775C3.58801 3.63896 3.6439 3.66211 3.70217 3.66211ZM13.807 2.83046L13.4962 2.51974C13.3726 2.39612 13.2049 2.32668 13.0301 2.32668C12.8553 2.32668 12.6876 2.39612 12.564 2.51974L11.5391 3.54463V1.09863C11.5388 0.807357 11.4229 0.528105 11.2169 0.322142C11.011 0.116179 10.7317 0.000325682 10.4405 0L2.5596 0C2.26832 0.000325682 1.98907 0.116179 1.7831 0.322142C1.57714 0.528105 1.46129 0.807357 1.46096 1.09863V12.5098H0.274292C0.216017 12.5098 0.160129 12.5329 0.118922 12.5741C0.0777152 12.6153 0.0545654 12.6712 0.0545654 12.7295V13.9014C0.0548911 14.1926 0.170744 14.4719 0.376707 14.6779C0.58267 14.8838 0.861923 14.9997 1.1532 15H10.4696C10.4776 15 10.4855 14.9995 10.4935 14.9987C10.7752 14.9847 11.0408 14.8631 11.2354 14.6589C11.43 14.4546 11.5387 14.1835 11.5391 13.9014V6.03062L13.807 3.76274C13.9304 3.63901 13.9997 3.47138 13.9997 3.2966C13.9997 3.12183 13.9304 2.95419 13.807 2.83046ZM1.1532 14.5605C0.978435 14.5603 0.810887 14.4908 0.687311 14.3673C0.563734 14.2437 0.49422 14.0761 0.494019 13.9014V12.9492H9.25379V13.8574C9.25361 14.1124 9.33918 14.3601 9.49674 14.5605H1.1532ZM11.0996 12.7267C11.0996 12.7276 11.0995 12.7285 11.0995 12.7295V13.8574C11.0995 14.0439 11.0254 14.2227 10.8935 14.3546C10.7617 14.4865 10.5828 14.5605 10.3964 14.5605C10.2099 14.5605 10.031 14.4865 9.89918 14.3546C9.76732 14.2227 9.69324 14.0439 9.69324 13.8574V12.7295C9.69324 12.6712 9.67009 12.6153 9.62888 12.5741C9.58768 12.5329 9.53179 12.5098 9.47351 12.5098C9.46856 12.5098 9.46373 12.5102 9.45886 12.5105C9.454 12.5102 9.44919 12.5098 9.44421 12.5098H1.90042V1.09863C1.90062 0.923869 1.97013 0.756322 2.09371 0.632745C2.21728 0.509169 2.38483 0.439655 2.5596 0.439453H10.4405C10.6152 0.439655 10.7828 0.509169 10.9063 0.632745C11.0299 0.756322 11.0994 0.923869 11.0996 1.09863V3.98408L7.02708 8.05664H3.70217C3.6439 8.05664 3.58801 8.07979 3.5468 8.121C3.5056 8.1622 3.48245 8.21809 3.48245 8.27637C3.48245 8.33464 3.5056 8.39053 3.5468 8.43174C3.58801 8.47294 3.6439 8.49609 3.70217 8.49609H6.58762L5.7277 9.35604C5.72198 9.3618 5.71658 9.36786 5.71153 9.37421L5.71094 9.375H3.70217C3.6439 9.375 3.58801 9.39815 3.5468 9.43936C3.5056 9.48056 3.48245 9.53645 3.48245 9.59473C3.48245 9.653 3.5056 9.70889 3.5468 9.7501C3.58801 9.7913 3.6439 9.81445 3.70217 9.81445H5.55043L5.25746 10.6934H3.70217C3.6439 10.6934 3.58801 10.7165 3.5468 10.7577C3.5056 10.7989 3.48245 10.8548 3.48245 10.9131C3.48245 10.9714 3.5056 11.0272 3.5468 11.0685C3.58801 11.1097 3.6439 11.1328 3.70217 11.1328H5.3428C5.35867 11.1328 5.3745 11.131 5.39 11.1276C5.42244 11.1319 5.45544 11.1287 5.48644 11.1182L6.88478 10.6521C6.88625 10.6516 6.88756 10.6509 6.88897 10.6504C6.90204 10.6458 6.91463 10.6399 6.92659 10.6328C6.92864 10.6316 6.93075 10.6305 6.93277 10.6292C6.93775 10.626 6.94261 10.6225 6.94742 10.6189C6.94912 10.6176 6.95093 10.6165 6.95257 10.6151C6.9589 10.6101 6.96494 10.6047 6.97068 10.599L7.75525 9.81445H9.29788C9.35615 9.81445 9.41204 9.7913 9.45325 9.7501C9.49445 9.70889 9.5176 9.653 9.5176 9.59473C9.5176 9.53645 9.49445 9.48056 9.45325 9.43936C9.41204 9.39815 9.35615 9.375 9.29788 9.375H8.1947L11.0996 6.47007V12.7267ZM5.9791 9.91819L6.4085 10.3476L5.76438 10.5623L5.9791 9.91819ZM6.81532 10.1329L6.19384 9.51141L11.4743 4.23097L11.4752 4.23009L12.0494 3.65581L12.6709 4.27729L6.81532 10.1329ZM13.4962 3.45199L12.9817 3.9665L12.3602 3.34503L12.8748 2.83046C12.8952 2.81005 12.9194 2.79386 12.9461 2.78282C12.9727 2.77177 13.0013 2.76609 13.0301 2.76609C13.059 2.76609 13.0876 2.77177 13.1142 2.78282C13.1409 2.79386 13.1651 2.81005 13.1855 2.83046L13.4962 3.14121C13.5374 3.18244 13.5605 3.23832 13.5605 3.29657C13.5605 3.35483 13.5374 3.4107 13.4962 3.45193L13.4962 3.45199Z" fill="white"/>
</svg>
