<svg width="32" height="32" viewBox="0 0 32 32" fill="none" xmlns="http://www.w3.org/2000/svg">
<g clip-path="url(#clip0_2_58)">
<path d="M24.3091 3.73633H3.49341V6.55393H24.3091V3.73633Z" fill="#D6FBE9"/>
<path d="M25.9712 5.81443L25.9744 3.04734e-05H5.81759C4.88046 -0.00379599 3.97774 0.352867 3.29629 0.996189C2.61485 1.63951 2.20686 2.52023 2.15679 3.45603L2.15359 17.6608V19.3984H2.15039V23.2576C2.15079 24.2861 2.55954 25.2724 3.28679 25.9996C4.01404 26.7269 5.0003 27.1356 6.02879 27.136H7.60639C7.476 26.6214 7.41043 26.0925 7.41119 25.5616C7.41119 23.8541 8.08952 22.2164 9.29695 21.009C10.5044 19.8016 12.142 19.1232 13.8496 19.1232C15.5572 19.1232 17.1948 19.8016 18.4022 21.009C19.6097 22.2164 20.288 23.8541 20.288 25.5616C20.2888 26.0925 20.2232 26.6214 20.0928 27.136H25.9712C26.9997 27.1356 27.9859 26.7269 28.7132 25.9996C29.4404 25.2724 29.8492 24.2861 29.8496 23.2576V9.69283C29.8497 9.18349 29.7494 8.67913 29.5545 8.20855C29.3596 7.73796 29.0739 7.31038 28.7138 6.95023C28.3536 6.59007 27.9261 6.30439 27.4555 6.10951C26.9849 5.91463 26.4805 5.81436 25.9712 5.81443V5.81443ZM6.10879 1.66083H24.3104V5.81443H6.10879C5.55799 5.81443 5.02975 5.59562 4.64027 5.20615C4.2508 4.81667 4.03199 4.28843 4.03199 3.73763C4.03199 3.18683 4.2508 2.65859 4.64027 2.26911C5.02975 1.87964 5.55799 1.66083 6.10879 1.66083V1.66083ZM25.056 17.392C24.8557 17.3923 24.6598 17.3333 24.493 17.2222C24.3263 17.1112 24.1962 16.9532 24.1193 16.7683C24.0424 16.5833 24.022 16.3797 24.0607 16.1832C24.0995 15.9867 24.1957 15.8061 24.3371 15.6642C24.4785 15.5223 24.6588 15.4256 24.8552 15.3862C25.0516 15.3468 25.2553 15.3665 25.4405 15.4429C25.6257 15.5193 25.7841 15.6488 25.8956 15.8152C26.0072 15.9816 26.0669 16.1773 26.0672 16.3776C26.0671 16.6461 25.9606 16.9036 25.7711 17.0937C25.5816 17.2838 25.3244 17.3911 25.056 17.392V17.392Z" fill="#7A4DE8"/>
<path d="M20.2879 25.5616C20.2887 26.0925 20.2231 26.6213 20.0927 27.136H7.60634C7.47595 26.6213 7.41038 26.0925 7.41114 25.5616C7.41114 23.854 8.08947 22.2164 9.2969 21.0089C10.5043 19.8015 12.142 19.1232 13.8495 19.1232C15.5571 19.1232 17.1947 19.8015 18.4022 21.0089C19.6096 22.2164 20.2879 23.854 20.2879 25.5616V25.5616Z" fill="#DCB262"/>
<path d="M20.0928 27.136C19.7422 28.5261 18.9377 29.7594 17.8068 30.6404C16.6759 31.5215 15.2833 32 13.8496 32C12.416 32 11.0234 31.5215 9.8925 30.6404C8.76159 29.7594 7.95707 28.5261 7.60645 27.136H20.0928Z" fill="#FFD317"/>
</g>
<defs>
<clipPath id="clip0_2_58">
<rect width="32" height="32" fill="white"/>
</clipPath>
</defs>
</svg>
