<svg width="30" height="31" viewBox="0 0 30 31" fill="none" xmlns="http://www.w3.org/2000/svg">
<path d="M14.9999 30.3589C23.2168 30.3589 29.8779 23.6978 29.8779 15.4809C29.8779 7.26401 23.2168 0.602905 14.9999 0.602905C6.78306 0.602905 0.121948 7.26401 0.121948 15.4809C0.121948 23.6978 6.78306 30.3589 14.9999 30.3589Z" fill="white"/>
<path d="M14.9999 29.8589C22.9407 29.8589 29.3779 23.4217 29.3779 15.4809C29.3779 7.54016 22.9407 1.10291 14.9999 1.10291C7.0592 1.10291 0.621948 7.54016 0.621948 15.4809C0.621948 23.4217 7.0592 29.8589 14.9999 29.8589Z" stroke="#FF4E1B"/>
<path d="M15.5938 22.5981C15.9154 22.1487 16.1035 21.6175 16.1361 21.0658L16.1446 18.9826L20.6446 14.4826L20.5499 13.7217L16.4685 15.7285L16.1545 17.4128L16.1651 13.5414L17.3827 11.7723L17.3248 10.4966L15.1935 12.0183L13.0623 10.4966L13.005 11.7715L14.2227 13.5407L14.2326 17.4128L13.9186 15.7285L9.83791 13.721L9.74316 14.4819L14.2432 18.9819L14.2531 21.0651C14.2531 21.4893 14.5861 22.7869 15.195 22.7876C15.2714 22.7878 15.3469 22.7709 15.4159 22.7381C15.4849 22.7053 15.5457 22.6575 15.5938 22.5981V22.5981Z" fill="#FF4E1B"/>
</svg>
